<?xml version="1.0" encoding="utf-8"?>
<!-- Generator: Adobe Illustrator 25.3.1, SVG Export Plug-In . SVG Version: 6.00 Build 0)  -->
<svg version="1.1" id="Layer_1" xmlns="http://www.w3.org/2000/svg" xmlns:xlink="http://www.w3.org/1999/xlink" x="0px" y="0px"
	 viewBox="0 0 432 416.7" style="enable-background:new 0 0 432 416.7;" xml:space="preserve">
<style type="text/css">
	.st0{fill:#1230C7;}
	.st1{clip-path:url(#SVGID_2_);}
	.st2{fill:#63A0FF;}
	.st3{fill:#EDEAE5;}
	.st4{clip-path:url(#SVGID_4_);}
	.st5{display:none;}
	.st6{display:inline;}
	.st7{display:inline;clip-path:url(#SVGID_6_);}
	.st8{clip-path:url(#SVGID_8_);}
	.st9{clip-path:url(#SVGID_10_);}
</style>
<circle class="st0" cx="216.2" cy="209.1" r="202.8"/>
<g>
	<defs>
		
			<rect id="SVGID_1_" x="47.8" y="184.9" transform="matrix(0.3564 -0.9343 0.9343 0.3564 -180.2555 341.5107)" width="220" height="233.4"/>
	</defs>
	<clipPath id="SVGID_2_">
		<use xlink:href="#SVGID_1_"  style="overflow:visible;"/>
	</clipPath>
	<g class="st1">
		<path class="st2" d="M61.1,274c18,19.3,45.1,27.4,70.7,21.2c21.7-4.9,43.6-17.9,45.8-42.2c1.1-12.6-9.9-26.3-23.1-30.5
			c-13.8-4.4-26.3,3-32.2,6.6c-3.6,2.1-10.7,7-26.6,31.3c-12.1,18.5-18.1,27.7-21.6,38.6c-4.8,15.1-6.6,34.7-1.1,49.9
			c7.3,20.2,29.8,26,35.2,27.8c28.1,9.3,54.8-3.2,84.2-16.8c21-9.7,32.7-19.3,37.8-23.7c7.4-6.4,18.4-16.2,26.7-32.5
			c6.5-12.8,12.9-25.4,7.7-37.6s-19.6-18.4-31-19c-24.2-1.2-42.7,22.7-50,39.1c-10,22.4-9.5,53.3,9,73.7c8.2,8.9,18.9,15.2,30.7,18
			c2.9,0.7,26.4,6,48.2-8.3c13.1-8.6,19.3-20.2,22.4-26.2c11.1-21.5,7.1-38.8,11.2-39.1c5.7-0.5,15.8,27.1,8.5,33.2
			c-5.4,4.4-16.2-5.9-23.3-1c-7.2,5-7.3,23.8,0,27.9c11.3,6.4,41.4-22,53.9-42.8c4.8-8.1,9-16.5,12.5-25.3c3.2-8,6.6-16.8,3.7-25.4
			c-3.6-10.8-16.5-20.7-26.8-12c-9.2,7.7-12.7,22.1-15.8,33c-5,17.9-4.7,36.7-3.8,55.1c0.3,5.5,0.6,11.9,4.1,16.5
			c4.1,4.5,9.8,7.2,15.9,7.6c13.7,1.8,27.2-4.3,35-15.7c2.2-3.4,12.1-25.3,0.8-23.3c-5.7,1.5-10.1,6.2-11.1,12
			c-0.6,7.3,2,14.6,7.1,19.9c9.8,11.2,24.8,10.6,37.5,5.2c11-4.6,20.2-12.6,26.2-22.9c0.3-0.6-2.4-0.6-2.8,0.2
			c-5.9,10.2-15.1,18.1-26.1,22.5c-12.8,7-29,2.3-36-10.5c-1-1.9-1.8-3.9-2.4-5.9c-1-3.1-1.2-6.3-0.6-9.5c0.4-1.6,1-3,1.9-4.4
			c0.6-0.9,1.3-1.7,2.1-2.4c0.7-0.7,4-3.5,5.3-2.6c3.1,2,0.2,10.8-0.6,13.1c-4.7,15.5-19.9,25.3-35.9,23.2c-6.2-0.6-11.7-4-15-9.3
			c-2-4.9-2.9-10.2-2.7-15.5c-0.7-16.7-1.3-33.9,2.9-50.3c2.2-10.5,6.1-20.7,11.5-30c1.3-2.2,3-4.2,4.9-5.9
			c4.3-3.7,9.6-2.2,13.8,1.4c6.4,5.3,9.6,13.6,8.5,21.8c-1.7,12.6-8.9,25.8-15.1,36.5c-3.3,5.8-34.9,48.1-44.6,42.6
			c-9.4-5.3,7.1-52.3,5.9-52.7c-0.6-0.2-0.3,30.3-15.1,36.3c-1.3,0.5-2.7,0.9-4.1,1c-30.2,3-70.1,26.3-91.2,12.5
			c-17.7-11.6-18.6-46.6-9.4-68.2c7.6-17.9,20.1-36.1,40.3-40.6c12.8-2.8,29.3-1.5,35.3,12.1c4.7,10.7,1.8,22.2-1.9,32.5
			c-11.5,31.7-35.7,51.4-49.4,60.5c-22,14.3-47.4,22.4-73.6,23.5c-14.5,0.6-26.5-0.5-39.8-7.5c-14.4-7.6-21.6-22.1-22.5-37.9
			c-0.9-15,1.8-30.1,7.9-43.9c5-10.4,11.1-20.2,18.2-29.3c12.7-17.3,34-43.7,58.5-34.4c14.4,5.3,19.7,19.8,16.3,34.1
			c-2.6,10.3-9,19.3-17.9,25c-26.9,17.3-58.8,9.7-63.2,8.4C81,288.8,70.2,282.5,61.1,274z"/>
		<path class="st3" d="M48,281.3c13.6,14.4,32.4,22.8,52.2,23.2c22.9,0.4,41.8-10.7,61.1-21.6c14.9-8.4,29.1-19.9,29.6-38.6
			c0.5-19.5-21.5-33.8-39.3-29.7c-11.7,2.7-22.6,10.4-32.9,16.1c-4.3,2.4-9,4.7-12.9,7.8c-11.9,9.4-20.1,24-28.1,36.5
			c-9.1,14-17,27.6-19.8,44.3c-3,18.1-1.9,39.4,12.9,52.2c9.6,8.3,23.8,13.4,36.3,15c22.1,2.8,43.6-6.4,63.3-15.4
			c12-5.5,23.6-11.5,35.1-17.8c9.7-5.3,19.4-10.6,28.4-17c11.6-8.3,22.4-18.4,30.4-30.2c10.7-15.9,24.1-41.3,6.2-56.9
			c-13.3-11.7-31.3-11.3-46.2-3.4c-11.3,6-23.9,11.7-33.7,20.1c-6.2,5.5-11.5,11.9-15.7,19c-8.9,14.7-12.5,32-10.4,49
			c4,31.6,32,54.7,63.8,52.6c9.5-0.7,18.7-3.3,27.1-7.9c12.4-6.6,26.5-12.8,36.9-22.5c12.5-11.6,20-28.5,22.5-45.2
			c0.5-3.3-0.2-11.4,2.7-13.8l-25.8,14.3c5.4-2.7,16.1,28.1,7.8,33.7l26.3-14.5c-4.4,1.9-9.4-1.1-13.6-2.2
			c-7.5-1.9-13.1,2.8-19.4,6.3c-5,2.8-10.5,5.3-15.3,8.6c-1.7,1.1-3,2.7-3.8,4.5c-2,4.5-2.6,9.6-1.7,14.4c1.6,9.1,7.7,11.8,15.8,8.4
			c9.4-3.9,18.3-9.7,27.1-14.7c4.7-2.6,9.2-5.7,13.4-9.1c20.5-16.8,35.4-39.7,43.8-64.8c2.4-7.2,3.5-14.9-0.1-22
			c-2.6-5.2-7.3-10.1-13.1-11.7c-7.2-2-13.7,3.1-19.7,6.3c-7.9,4.3-17.6,8.1-23.3,15.6c-7.8,10.2-11.3,25-13.6,37.4
			c-3,16.1-2.7,32.9-1.5,49.2c0.5,7.2,2.2,13.2,8.5,17.3c5.7,3.7,13,4.5,19.6,3.8c7.4-0.7,13.5-4,20-7.5c8.6-4.7,18.2-8.9,25.8-15.1
			c6.9-5.6,11.2-14,12.8-22.8c0.5-2.6,1.1-6.8-2-8.1c-1.8-0.8-4.1,0.2-5.7,0.9c-5.5,2.4-10.7,5.7-15.9,8.6
			c-6.5,3.6-15.2,6.8-18,14.3c-2.3,6.3,0.2,14.2,3.9,19.5c7.8,11,20.6,13.9,33.2,10.6c7.3-2,13.9-5.8,20.5-9.4
			c8.4-4.6,17.5-8.9,25.2-14.8c2.6-2,5.1-4.3,7.3-6.8c1-1.1,6.9-7.4,6.3-8.8c-1.1-2.4-23.7,11.5-25.8,12.7c-5.3,3-7.8,9.1-12.2,13.4
			c-2.6,2.5-5.5,4.7-8.5,6.7c-3.4,2.4,28.4-14.7,20.2-11.2c-1.1,0.5-2.2,1-3.3,1.5c-1.8,0.8-3.7,1.4-5.6,1.9
			c-14.2,3.3-28.5-5.3-32.2-19.5c-1.8-6.7,0-13.6,6-17.4l-25.3,14c5.5-2.5,2.4,9.5,1.7,11.6c-1.7,6.2-5.1,11.8-9.8,16.2
			c-0.7,0.6-1.4,1.2-2.1,1.7c-7.6,5.5-0.9,1.9,20.1-10.8c-1.9,0.8-3.8,1.5-5.8,2.1c-3.1,0.8-6.3,1.1-9.6,1
			c-6.9-0.3-14.4-3.1-17.8-9.6c-4-7.6-2.9-18.4-3.1-26.7c-0.4-9.4,0-18.8,1.2-28.1c1.2-9.1,3.5-17.9,6.7-26.5
			c2.9-7.6,6.3-16.4,13.1-21.4l-25.8,14.3c10.1-4.9,19.1,9.2,20.4,17.5c1.6,10.4-3.6,21.6-8.1,30.7c-5.5,10.8-12.2,21-20,30.3
			c-4.2,5.2-8.7,10.2-13.4,14.9c-2,2-4.1,3.9-6.3,5.7c-1.1,0.9-2.3,1.7-3.4,2.5l22.9-12.7l-0.5,0.2c-0.5,0.1-1,0.3-1.5,0.4
			c-9.6,1.3-5.2-18-4.4-22.6c1.3-6.9,3-13.6,4.8-20.3c0.3-1.1,3.4-9.1,2.4-10.1c-0.6-0.6-12,6.5-13.2,7.1c-4.3,2.4-9.2,4.4-13,7.4
			c-0.6,0.5-0.4,3.6-0.5,4.3c-0.3,3.4-0.8,6.8-1.4,10.1c-0.7,4-2,7.9-3.6,11.7c-0.8,1.7-1.7,3.2-2.8,4.7c-0.6,0.8-1.2,1.5-1.8,2.2
			c-0.3,0.4-0.6,0.7-1,1c-7.3,5.8-0.2,2,21.3-11.6l1.8-0.9c-5.5,2.5-12.5,2.3-18.4,3.7c-7.2,1.7-14.2,3.8-21.3,6
			c-13.2,4-27.2,8.9-41.1,8.4c-28.5-1-33.1-34.2-29.2-56.6c2.5-13.6,8.3-26.4,16.8-37.3c2.2-2.9,4.6-5.5,7.3-8
			c1.2-1.1,2.5-2.2,3.8-3.2c1-0.8,2-1.4,3.1-2.1l-21.6,11.9l2.1-1c6.1-2.5,12.7-3.7,19.3-3.4c15.3,0.5,25.8,10.5,25.5,26.2
			c-0.3,16-8.9,32.7-17.9,45.5c-7.7,10.8-16.9,20.4-27.4,28.5c-3.1,2.4-6.2,4.7-9.5,6.8c-1.1,0.7-2.3,1.4-3.4,2.1
			c-5.6,3.5,26.4-14,16.3-9.1c-1.5,0.7-2.9,1.4-4.4,2.1c-13,6-26.8,10-41,12c-16.5,2.3-34.2,2.5-49.6-4.4
			c-32.1-14.4-31.3-55.9-18.5-83.7c6.8-14.7,16.6-28.2,27-40.6c4.5-5.5,9.5-10.5,14.9-15c1.7-1.3,3.4-2.5,5.2-3.7
			c1.4-1-23.2,12.2-19.3,10.8c0.8-0.3,1.6-0.6,2.5-0.9c3.1-1.1,6.3-1.6,9.5-1.7c14.2-0.4,26.3,10.3,27.8,24.4
			c0.6,7.2-0.9,14.4-4.3,20.7c-1.7,3.3-3.9,6.4-6.4,9.1c-4.6,5-19.1,12.9,1.4,1.6c20.7-11.4,5.3-3.2-1.1-1.3
			c-3.9,1.1-7.8,1.9-11.8,2.4c-6.4,0.8-12.9,0.9-19.3,0.3c-10.4-0.8-20.5-3.9-29.6-9c-5.8-3.3-11.3-7.3-16.2-11.9
			c-0.7-0.6-12,6.5-13.2,7.1S48.5,281.8,48,281.3c22.8,21,56.3,27.6,85.2,15.2c5.8-2.5,11.2-5.7,16.7-8.7c6.5-3.6,13.1-6.9,19.2-11
			c7.6-4.9,13.4-12.2,16.6-20.7c6.1-16.6-0.7-35.5-19-39.7c-7.7-1.7-15.1,0.1-22,3.5c-11.8,5.9-24.5,12-34.9,20.3
			c-13.7,10.9-25,26.5-34.1,41.2c-11.5,18.8-18.2,40.3-15.4,62.5c2.4,19,14.9,32.6,33,38.2c18.7,5.8,40.5,3.3,59.1-1.6
			c17.1-4.4,32.3-12.3,47.6-20.8c11.2-6.2,22.1-12.2,32.1-20.2c13-10.3,23.9-23.1,32.1-37.5c8.2-14.8,19.5-41.2,3.9-55.2
			c-12.5-11.2-32.1-5.9-45,1.1c-11,5.9-23.5,11.4-32.8,20c-6.5,6.2-11.6,13.8-15.6,21.7c-7.5,14.5-10.5,30.8-8.5,47
			c1.8,14,8.4,28.8,23.6,32c15.8,3.3,33.2-3.4,48.1-7.9c8.6-2.8,17.3-5.1,26.1-7c3.5-0.7,7.3-0.7,10.7-1.7
			c5.7-1.7,11.1-5.6,16.2-8.4c8.1-4.5,16.5-7.7,20.7-16.4c2.7-5.5,4-11.6,4.8-17.7c0.2-1.3-0.1-8,1-8.8l-26.2,14.5
			c1,1-2.3,9.8-2.6,10.9c-1.8,6.9-3.6,13.9-4.9,21c-1,5.4-2.5,12.3-0.5,17.7c1.7,4.8,5.9,3.5,9.6,1.7c8.3-4.2,16.5-8.8,24.5-13.5
			c3-1.7,5.7-3.7,8.3-6c5.6-5.1,10.8-10.6,15.6-16.4c10-11.8,18.4-24,24.6-38.3c4.7-10.7,8.8-23.5,2.1-34.2
			c-2.7-4.3-7.3-8.9-12.6-9.2c-2.6-0.2-4.5,0.9-6.7,2.1c-6.1,3.2-12,6.5-18,9.9s-10.1,6.1-13.5,12.1c-3.2,5.7-5.8,11.8-7.8,18.1
			c-4.2,13.6-6.3,27.8-6.2,42c0,6.2,0.3,12.5,0.5,18.7c0.2,6.5,0.5,13.9,5.3,18.8c7.3,7.5,19.5,7.6,28.7,4
			c8.2-3.2,15.9-8.2,23.5-12.5c5.1-2.8,10.3-5.5,14.5-9.7c5.2-5.3,11.1-15.9,9.9-23.8c-1-6.6-10.8,1.4-13.5,2.9
			c-5.4,3-10.9,5.8-16.1,9c-2.1,1.2-4,2.9-5.4,4.8c-7.4,11,3.4,27.3,14.1,31.5c15.9,6.2,31.9-5.4,45.1-12.8
			c6.3-3.5,12.8-6.8,18.4-11.4c2.3-2,4.5-4.1,6.4-6.4c1.9-2.3,3.5-6.1,5.8-7.9l-26.2,14.5c5-1.2-0.8,5-2,6.6
			c-3,3.8-6.5,7.2-10.5,10.1c-0.5,0.4-1.1,0.8-1.7,1.2c-7.3,4.9-1,1.5,18.9-10.3c-1.2,0.5-2.4,1.1-3.7,1.6c-2,0.8-4,1.5-6.1,2
			c-4.3,1.1-8.7,1.5-13.1,1.1c-8.7-1-16.4-6.1-20.7-13.8c-4.7-8.2-5.2-19.5,3.5-25.1l-25.3,14c11.6-6,8.1,8.9,5.8,14.7
			c-1.3,3.7-3.2,7.2-5.7,10.3c-2.2,2.4-4.6,4.6-7.2,6.5l9.9-5.5c10.5-5.3,13.4-7,8.5-4.9c-0.7,0.2-1.4,0.5-2.1,0.7
			c-1.9,0.6-3.8,1-5.8,1.3c-6.5,0.9-13.9,0.4-19.8-2.9c-7.1-4-9.2-10.3-9.8-18.1c-1.2-16.6-1.5-33.7,1.7-50.1
			c1.5-7.8,3.7-15.5,6.4-23c2.7-7.2,6.4-15.2,13.2-19.5l-25.3,14c13.6-6.7,25.7,10.5,24.9,22.5c-0.5,8.1-4.2,16-7.4,23.3
			c-3.1,7-6.6,13.8-10.7,20.3c-6.8,10.6-15,20.1-24.5,28.4c-2.1,1.9-4.2,3.7-6.5,5.3c-1.2,0.9-2.4,1.8-3.7,2.6
			c-10.7,7.1,30.1-14.5,18.2-10.1c-3.1,1.2-6.9,2.4-10.1,0.7c-8.8-4.5-7.1-22.7-0.2-28l-1.8,1l0.9-0.6L278,342.9
			c7-2.8,13.1,3.9,20,2.6c1.9-0.3,3.9-1.7,5.5-2.6c4.3-2.3,8.5-4.6,12.8-7c3.5-2,9.9-4,11.8-8c2.5-5.1,0.5-12.4-1.1-17.5
			c-1.2-3.6-3.6-11.9-7.8-13.4c-2.6-0.9-6.3,2.3-8.3,3.4c-4.9,2.7-9.7,5.4-14.6,8.1c-1.7,1-4.4,1.8-5.6,3.5c-1,1.4-1,3.7-1.2,5.4
			c-0.5,3.7-0.8,7.4-1.5,11.2c-3.1,17-11.8,34.2-25.6,45.1c-0.9,0.7-1.8,1.4-2.7,2l-2.5,1.7l20.6-11.4c-2.9,1.3-5.8,2.5-8.8,3.4
			c-4.5,1.3-9,2.1-13.7,2.5c-6,0.5-12,0.1-17.9-1.1c-15.5-3.3-29.1-12.6-37.7-26c-18.8-30-8.6-71.6,17.6-93.8c1.9-1.6,4-3,6-4.5
			l-10.3,5.7c-11.1,5.7-13.9,7.4-8.4,4.9c0.8-0.3,1.6-0.6,2.5-0.9c4.3-1.4,8.8-2.1,13.3-1.8c8.3,0.4,16.3,3.4,22.8,8.5
			c19,15.3,6,40.8-4.7,57.1c-8,12.2-19,22.5-30.9,30.9c-3.5,2.5-7.1,4.7-10.8,7c-2.4,1.6,22-11.7,13.4-7.5c-1.1,0.6-2.3,1.1-3.4,1.7
			c-3.7,1.8-7.4,3.4-11.1,5.1c-10.6,4.8-21.5,9.5-32.8,12.5c-16.4,4.5-33.8,3.5-49.5-2.9c-15-5.9-26.1-16.6-29.4-32.8
			c-3.5-17.7-0.2-37.6,8-53.7c4-7.8,8.9-15.2,13.7-22.6c5.4-8.3,10.9-16.6,17.2-24.3c2.9-3.7,6.2-7,9.8-9.9c1-0.7,2-1.3,3-2
			l-20.5,11.3l1.1-0.6c1.3-0.6,2.6-1.2,3.9-1.6c2.6-0.9,5.2-1.6,7.9-2c18.2-2.5,38.4,13.9,36.1,33c-1,8.2-4.6,15.9-10.3,22.1
			c-3,3.2-6.4,6.1-10.1,8.5l-0.6,0.3c-7.2,4.5-0.6,0.8,20.1-11c-1.1,0.5-2.1,1-3.2,1.5c-2.3,1-4.6,1.9-7,2.6
			c-18.2,6-37.7,6-55.3-1.8c-9-4.1-17.1-9.9-23.9-17.1c-0.5-0.5-12.1,6.5-13.2,7.1S48.4,281.7,48,281.3z"/>
	</g>
</g>
<g>
	<defs>
		<polygon id="SVGID_3_" points="521.5,254.8 244.1,430 74,90.7 314.9,-65 		"/>
	</defs>
	<clipPath id="SVGID_4_">
		<use xlink:href="#SVGID_3_"  style="overflow:visible;"/>
	</clipPath>
	<g class="st4">
		<path class="st2" d="M135,284.4c-0.2,0.6-0.5,1.2-0.5,1.2c-1.8,4.3-7.3,18.4-6.2,35.7c0.5,8.2,1.2,18.6,7.7,28.2
			c0,0,16.5,24.4,76.1,24h1.1c58-0.8,98.9-47.8,98.9-47.8c10.2-11.8,16.2-19,17.1-30c1.6-21-17-38-25.9-46
			c-10.2-9.2-15.5-10.7-51.6-28.5c-32.7-16.2-45.7-23.5-55-30.2c-2.9-2.1-4.8-3.6-6.2-4.7c-6.7-5.4-20.2-16.5-29.6-33.7
			c-2.5-4.5-8.6-15.7-10.2-29.6c-3.1-28.8,15-52.4,22.4-60.1c25.6-26.4,66.4-50.9,111.2-41.5c4.2,0.9,56.6,12.7,70.4,53.6
			c3,8.9,4,18.5,2.7,27.8c-4.6,31-34.2,51.3-57.8,58.7c-28.5,8.9-70.3,5.8-83.9-18.4c-5.4-9.5-8.7-26.5-1.4-35.1
			c5.4-6.4,23.9-19.8,29.2-21c1.2-0.3,1.6-1,1.5-1.7s-1.5-0.6-1.9-0.7c-4.2-0.3-41.9,25-34.9,48.4c2.6,8.5,12.9,19.1,14.2,20.3
			s2.8,2.5,2.8,2.5s1,0.8,2.1,1.6c33.3,25.3,102.2,21.3,124.9-21.1c17.7-33-2.3-71.4-5.1-76.6c-3.5-6.6-14.3-26.5-36.6-35.7
			c-10.3-4.3-20.2-5-29.3-5.7c-12-0.9-24-0.2-35.8,2.2c-34.7,6.7-72.3,28.8-90.7,61.1c-11.1,18.8-11.3,42.2-0.6,61.2
			c12.7,21.4,29.8,39.9,50.2,54.2c18.1,12.8,37.4,23.7,57.7,32.5c19.9,9.1,43.7,15.8,55.9,35.9c6.4,9.6,8.9,21.3,7.1,32.8
			c-2.8,14.3-14.3,25.9-24.6,35.2c-7.2,6.6-25.6,22.7-53.4,31.6c-8.2,2.6-16.5,4.5-25,5.6c-10,1.3-20.1,1.7-30.1,1
			c-13.2-0.9-24.3-1.6-37-7.8c-6.2-3-13.4-6.6-19-14.1c-9.1-12.2-8-26.6-7.2-36.7c2.6-33.4,25.5-55.2,24.4-56S136.6,280.8,135,284.4
			z"/>
		<path class="st3" d="M125.1,273.1c-3.6,8.4-5.8,17.2-6.6,26.3c-1,12.2,0,26.6,6.6,37.3c4.5,7.3,11.3,13.6,16.9,19.9
			c3.5,3.9,6.9,7.8,11.1,11c12.3,9.2,27.8,13.4,42.8,15.5c23.2,3.3,46.5,1.8,68.5-6.7c16.8-6.7,32.3-16.1,45.8-28
			c8.9-7.7,17.8-16.7,24-26.8c14.9-24.3-6.5-46.4-21.8-63.6c-9.8-11-19.7-22.2-32.7-29.4c-18.9-10.4-38.8-19-58-28.9
			c-14-7.2-28.1-14.5-40.4-24.3c-3.2-2.5-6.3-5.2-9.3-7.9c-1.8-1.7-3.6-3.5-5.3-5.3l13.2,14.9c-0.9-1.1-1.8-2.2-2.6-3.4
			c-1.3-1.8-2.6-3.7-3.8-5.6c-5.9-9.3-10.5-19.7-12.3-30.5c-3.6-21.7,5-43.8,18.9-60.3c27.3-32.4,74.1-54.7,116.5-44.3
			c12.3,3,24.1,7.9,34.9,14.4c3.8,2.3,7.5,4.9,11,7.7c1.5,1.2,3,2.5,4.3,3.8c1,1,2,1.9,2.9,2.9c-15.2-17.8-20-23.2-14.5-16.3
			c0.6,0.8,1.2,1.6,1.8,2.5c6.6,9.5,10.4,20.6,11,32.2c2.1,42.5-41.9,70.7-79.8,74c-19.9,1.7-41.2-1.3-56.5-14.9l16.9,19.2
			c-0.6-0.7-1.2-1.5-1.7-2.3c-0.6-1-1.2-2-1.8-3c-1-1.9-1.8-3.9-2.5-6c-2.1-5.7-2.9-11.7-2.3-17.7c1.1-9.4,8.1-14.8,15.1-20.2
			c3.8-2.9,7.7-5.7,11.9-8.2c1.5-0.9,7.9-3,7.7-4.7c-0.1-0.7-2.6-3.1-2.8-3.4c-2.3-2.7-4.7-5.3-7-8c-3-3.3-6-8.3-9.6-10.8
			c-2-1.4-3.1-1.1-5.2,0c-13.1,6.3-27.4,20-31.7,34.2c-2.8,9.2,0.5,17.1,6.1,24.5c5,6.7,10.8,12.9,16.4,19.1
			c3.6,4.1,7.1,8.4,11.1,12.2c12.7,12.1,30.5,17.9,47.6,19.5c38.5,3.7,83.4-14.6,89-57.2c2.4-18.5-2.6-37.9-11.1-54.3
			c-2.7-5.3-5.8-10.3-9.4-15c-5-6.6-10.8-12.7-16.3-19c-4.5-5-8.8-10.2-13.9-14.6C297.8,5.7,267,4.1,241.2,8.1
			c-23.7,3.7-46.1,13.2-65.2,27.7c-18.9,14.3-36.8,35-39.3,59.4c-3,28.9,16.4,51.2,34.3,71.5c10,11.4,19.9,22.8,31.5,32.6
			c11,9,22.7,17,35,24c12,6.9,24.3,13.1,37,18.6c10.5,4.7,21.4,8.6,31.5,14.4c4.6,2.6,8.8,5.6,12.7,9.1
			c10.3,9.5-20.3-25.5-12.2-13.8c0.9,1.3,1.7,2.6,2.5,3.9c2,3.3,3.6,6.7,4.7,10.4c3.9,11.8,2.3,24.8-4.3,35.3
			c-9.9,15.9-27,29.5-42.9,39.1c-20.3,12.1-43.3,19.1-66.9,20.1c-13,0.6-26.7,0.1-39.4-2.7c-6.5-1.5-12.7-3.9-18.6-7.1
			c-2.1-1.1-4.2-2.3-6.1-3.6c-1.3-0.8-2.4-1.8-3.6-2.7c-6.5-5.9-2.1-0.8,13.2,15.1c-0.6-0.9-1.2-1.9-1.8-2.9
			c-5.4-9.9-5.4-21.4-4.4-32.4c1.1-11.7,4.4-23.1,9.8-33.5c3.6-6.8,7.8-13.2,12.5-19.2c0.5-0.7,2.2-2.2,2.2-3.1
			c-0.1-1.5-4-4.8-4.9-5.8c-4.5-5.2-9-10.3-13.6-15.3c-2-2.2-2.2-1-3.9,1.1c-2.1,2.8-4,5.7-5.9,8.6
			C131.5,262.1,127.7,267.4,125.1,273.1c-0.5,1.1,8.8,10.2,9.8,11.3c2.3,2.7,4.7,5.3,7,7.9c1.1,1,2.1,2.1,3,3.2
			c2.4-5.4,6-10.4,9.2-15.4c1.9-2.9,3.8-5.8,5.8-8.7c0.4-0.6,2.1-3.6,3.1-3.5l-19.8-22.5c0.6,0.9-5.5,7.8-6.1,8.6
			c-4.7,6.6-8.7,13.6-11.9,21.1c-3.9,9.6-6.2,19.7-6.8,30c-0.7,11,0.1,22.2,6.4,31.6c4.4,6.6,10.4,12.5,15.6,18.4
			c4.5,5.1,8.8,10.4,14.5,14.3c9.4,6.3,20.1,10.3,31.4,11.8c22.5,3.2,45.6,2.1,67.4-4.2c18.6-5.6,35.8-14.9,50.7-27.4
			c14.5-12.1,31-27.4,31-47.7c0-11.3-4.4-21.8-11.4-30.7c-5.8-7.3-12.2-14.2-18.4-21.1c-3.4-4-7.2-7.7-11.4-11
			c-8.2-6.3-17.8-10.5-27.3-14.6c-10.7-4.5-21.4-9.1-31.8-14.3c-22.4-11.2-44.4-24.8-62.4-42.4c-1.1-1.1-2.2-2.2-3.3-3.3l-1.1-1.2
			c-5.5-5.9-1.7-1.5,11.5,13.2c-2-2.5-4-4.9-5.9-7.5c-3.7-4.9-7.1-9.9-10.2-15.2c-5.7-10.1-8.4-21.6-7.8-33.1
			c1.1-22.7,15.8-42.4,32.4-56.8c16.3-14,35.5-24.2,56.3-29.9c12-3.3,24.4-5,36.8-5c12.3,0.1,25.4,1,37,5.3c5.1,1.9,10,4.6,14.4,7.8
			c2.1,1.5,4.1,3.1,6,4.9c0.9,0.8,1.7,1.6,2.5,2.4c8.1,8-20.9-25.2-12.3-13.8c3.2,4.3,6,8.9,8.5,13.7c7.4,14.1,12,30.3,11.9,46.3
			c0,19.3-9.1,37.6-24.5,49.3c-26.3,19.9-66.5,22.2-95.9,8.2c-6.5-3.1-12.4-7.3-17.6-12.2c-7-6.4,19.4,23.1,13.9,15.7
			c-0.8-1.1-1.7-2.2-2.5-3.3c-1.3-1.8-2.4-3.7-3.4-5.7c-1.8-3.6-2.5-7.6-2.1-11.6c1.5-15,15.2-27.7,26.9-35.7
			c2.2-1.5,7.9-6.2,10.6-3.8l-19.9-22.5c-0.1,1.8-6.2,3.7-7.7,4.7c-4.1,2.5-8.1,5.2-11.9,8.2c-7.5,5.8-14.5,11.3-15.2,21.5
			c-0.5,10.3,2.7,20.4,9,28.5c6.5,8.1,13.5,15.9,20.6,23.4c3,3.2,6.5,6,10.3,8.2c17.8,10.2,41.1,10.6,60.8,6.4
			c20-4.3,39.4-15.2,52.5-31.1c14-17,18.2-39.3,10.2-60.1c-4.2-10.9-11.7-19.3-19.3-28c-8.5-9.7-16.7-19.6-27.4-27.1
			c-28.5-19.9-64.4-26-97.5-14.4c-39,13.7-83.4,50.8-79,96.6c2.7,28.5,23.8,50,42,70c10.7,11.7,23.2,21.8,37,29.7
			c20.1,11.7,41.3,21.6,62.3,31.8c11.3,5.5,22.4,10.7,31.8,19.1c1.5,1.3,2.9,2.7,4.3,4c1,0.9,1.9,1.9,2.9,2.8
			c7.3,7.4-18.9-22.6-12.5-14.1c3.5,4.5,6.4,9.5,8.5,14.9c4,10.3,2.6,22-3.5,31.2c-6.4,9.8-15,18.6-23.8,26.2
			c-14.1,12.2-30.3,21.8-47.8,28.4c-22.5,8.2-46.6,9.1-70.1,5.1c-14.2-2.4-29-7-40.3-16.2c-1.1-0.9-2.2-2-3.3-3
			c-7.1-6.8,22.7,28.2,17.7,20.1c-0.1-0.1-0.4-0.6,0,0c-0.7-1.1-1.4-2.1-2-3.2c-5.9-10.7-6.7-24.7-5.6-36.6
			c0.9-8.8,3.1-17.4,6.5-25.5c0.5-1.2-8.8-10.2-9.8-11.3c-2.3-2.7-4.7-5.3-7-7.9C127,275.3,126.1,274.2,125.1,273.1z"/>
	</g>
</g>
<g class="st5">
	<defs>
		
			<rect id="SVGID_5_" x="-212.3" y="-145.9" transform="matrix(0.7071 -0.7071 0.7071 0.7071 -229.1136 96.0265)" width="427.3" height="941"/>
	</defs>
	<clipPath id="SVGID_6_" class="st6">
		<use xlink:href="#SVGID_5_"  style="overflow:visible;"/>
	</clipPath>
	<g class="st7">
		<g>
			<defs>
				
					<rect id="SVGID_7_" x="17" y="194.7" transform="matrix(0.3564 -0.9343 0.9343 0.3564 -209.213 319.0618)" width="220" height="233.4"/>
			</defs>
			<clipPath id="SVGID_8_">
				<use xlink:href="#SVGID_7_"  style="overflow:visible;"/>
			</clipPath>
			<g class="st8">
				<path class="st2" d="M30.4,283.8c18,19.4,45.1,27.5,70.7,21.2c21.7-4.9,43.6-17.9,45.8-42.2c1.1-12.6-9.9-26.3-23.1-30.5
					c-13.8-4.4-26.3,3-32.2,6.6c-3.6,2.1-10.8,7-26.6,31.3c-12.1,18.5-18.1,27.7-21.6,38.7c-4.8,15.1-6.6,34.7-1.1,49.9
					c7.3,20.2,29.8,26,35.2,27.8c28.1,9.3,54.8-3.2,84.2-16.8c21-9.8,32.7-19.3,37.8-23.7c7.4-6.4,18.4-16.2,26.7-32.5
					c6.5-12.9,12.9-25.4,7.7-37.6s-19.6-18.4-31-19c-24.2-1.2-42.7,22.8-50,39.1c-10.1,22.4-9.5,53.3,9,73.7
					c8.2,8.9,18.9,15.2,30.7,18c2.9,0.7,26.4,6,48.2-8.3c13.1-8.6,19.3-20.2,22.4-26.2c11.1-21.5,7.1-38.8,11.2-39.2
					c5.7-0.5,15.8,27.2,8.5,33.2c-5.4,4.4-16.2-5.9-23.3-1c-7.3,5-7.3,23.8,0,27.9c11.3,6.4,41.4-22.1,53.9-42.8
					c4.8-8.1,9-16.6,12.4-25.4c3.2-8,6.6-16.8,3.7-25.4c-3.6-10.8-16.5-20.7-26.8-12c-9.2,7.7-12.7,22.1-15.8,33
					c-5,17.9-4.7,36.7-3.8,55.1c0.3,5.5,0.6,11.9,4.1,16.5c4.1,4.5,9.8,7.2,15.9,7.6c13.7,1.8,27.2-4.3,35-15.7
					c2.2-3.4,12.1-25.3,0.8-23.3c-5.7,1.5-10,6.2-11.1,12c-0.6,7.3,2,14.6,7.1,19.9c9.8,11.2,24.8,10.6,37.5,5.2
					c11-4.6,20.2-12.6,26.2-22.9c0.3-0.6-2.3-0.6-2.8,0.2c-5.9,10.2-15.1,18.1-26.1,22.5c-7.7,3.7-16.6,3.9-24.5,0.5
					c-6.7-3.6-11.6-9.7-13.9-17c-1-3.1-1.2-6.4-0.6-9.5c0.6-2.6,2-5,4-6.8c0.7-0.7,4-3.5,5.3-2.6c3.1,1.9,0.2,10.8-0.6,13.1
					c-4.7,15.5-19.9,25.3-35.9,23.2c-6.2-0.6-11.7-4-15-9.3c-2-4.9-2.9-10.2-2.7-15.4c-0.7-16.7-1.3-33.9,2.9-50.3
					c2.2-10.5,6.1-20.7,11.5-30c1.3-2.2,3-4.2,4.9-5.8c4.3-3.7,9.6-2.2,13.8,1.4c6.4,5.3,9.6,13.6,8.5,21.8
					c-1.7,12.6-8.9,25.7-15.1,36.5c-3.3,5.8-34.9,48.1-44.6,42.6c-9.4-5.2,7.1-52.3,5.9-52.6c-0.6-0.2-0.3,30.3-15.1,36.3
					c-1.3,0.5-2.7,0.9-4.1,1c-30.2,3-70.1,26.3-91.2,12.5c-17.7-11.6-18.6-46.6-9.4-68.2c7.6-17.9,20.1-36.1,40.3-40.6
					c12.8-2.8,29.3-1.5,35.3,12.1c4.7,10.7,1.8,22.2-1.9,32.5c-11.5,31.7-35.7,51.4-49.4,60.5c-22,14.3-47.4,22.4-73.6,23.5
					c-14.5,0.5-26.5-0.5-39.8-7.5c-14.4-7.6-21.6-22.1-22.5-37.9c-0.9-15,1.8-30.1,7.9-43.9c5-10.4,11.1-20.2,18.2-29.3
					c12.7-17.3,34-43.7,58.5-34.3c14.4,5.3,19.7,19.7,16.3,34.1c-2.6,10.3-9,19.3-17.9,25c-26.9,17.3-58.8,9.7-63.2,8.4
					C50.3,298.6,39.4,292.3,30.4,283.8z"/>
				<path class="st2" d="M17.2,291.1c13.6,14.4,32.4,22.8,52.2,23.2c22.9,0.4,41.8-10.7,61.1-21.6c14.9-8.4,29.1-19.9,29.6-38.6
					c0.5-19.5-21.5-33.8-39.3-29.7c-11.7,2.7-22.6,10.4-32.9,16.1c-4.3,2.4-9,4.7-12.9,7.8c-11.9,9.4-20.1,24-28.1,36.5
					c-9.1,14-17,27.6-19.8,44.3c-3,18.1-1.9,39.4,12.9,52.2c9.6,8.3,23.8,13.4,36.3,15c22.1,2.8,43.6-6.5,63.3-15.4
					c12-5.5,23.6-11.5,35.1-17.8c9.7-5.3,19.4-10.6,28.4-17c11.6-8.3,22.4-18.4,30.4-30.2c10.7-15.9,24.1-41.3,6.2-56.9
					c-13.3-11.7-31.3-11.3-46.2-3.4c-11.3,6-23.9,11.7-33.7,20.1c-6.2,5.5-11.5,11.9-15.7,19c-8.9,14.7-12.5,32-10.4,49
					c4,31.6,32,54.7,63.8,52.6c9.5-0.7,18.7-3.3,27-7.9c12.4-6.6,26.5-12.8,36.9-22.5c12.5-11.6,20-28.5,22.5-45.2
					c0.5-3.3-0.1-11.4,2.7-13.8l-25.8,14.3c5.4-2.7,16.1,28.1,7.8,33.7l26.2-14.5c-4.4,1.9-9.4-1.1-13.6-2.2
					c-7.5-1.9-13,2.8-19.4,6.3c-5,2.8-10.5,5.3-15.3,8.6c-1.7,1.1-3,2.7-3.8,4.5c-2,4.5-2.6,9.6-1.7,14.4c1.6,9.1,7.7,11.8,15.8,8.4
					c9.4-3.9,18.3-9.7,27.1-14.7c4.7-2.6,9.2-5.7,13.4-9.1c20.5-16.8,35.4-39.7,43.8-64.8c2.4-7.2,3.5-14.9-0.1-22
					c-2.6-5.2-7.3-10.1-13.1-11.7c-7.2-2-13.7,3-19.7,6.3c-7.9,4.4-17.6,8.1-23.3,15.6c-7.8,10.2-11.3,25-13.6,37.4
					c-3,16.1-2.7,32.9-1.5,49.2c0.5,7.2,2.2,13.2,8.5,17.3c5.7,3.7,13,4.5,19.6,3.8c7.4-0.7,13.5-4,20-7.5
					c8.6-4.7,18.2-8.9,25.9-15.1c6.9-5.7,11.2-14,12.8-22.8c0.5-2.6,1-6.8-2-8.1c-1.8-0.8-4.1,0.2-5.7,0.9
					c-5.5,2.4-10.7,5.7-15.9,8.6c-6.5,3.6-15.2,6.8-18,14.3c-2.3,6.3,0.2,14.2,3.9,19.5c7.8,11,20.6,13.9,33.2,10.6
					c7.3-2,13.9-5.8,20.5-9.4c8.4-4.6,17.5-8.9,25.2-14.8c2.6-2,5.1-4.3,7.3-6.8c1-1.1,6.9-7.4,6.3-8.8
					c-1.1-2.4-23.7,11.5-25.8,12.7c-5.3,3-7.8,9.1-12.2,13.4c-2.7,2.5-5.5,4.7-8.5,6.7c-3.4,2.4,28.4-14.7,20.2-11.2
					c-1.1,0.5-2.2,1-3.3,1.5c-1.8,0.8-3.7,1.4-5.6,1.9c-14.2,3.3-28.5-5.4-32.1-19.5c-1.8-6.7,0-13.6,6-17.4l-25.3,14
					c5.5-2.5,2.4,9.5,1.7,11.6c-1.7,6.2-5.1,11.8-9.8,16.2c-0.7,0.6-1.3,1.2-2.1,1.7c-7.6,5.5-0.9,1.9,20.1-10.8
					c-1.9,0.8-3.8,1.5-5.8,2.1c-3.1,0.8-6.3,1.1-9.6,1c-6.9-0.3-14.4-3.1-17.8-9.6c-4-7.6-2.9-18.4-3.1-26.7
					c-0.4-9.4,0-18.8,1.2-28.1c1.2-9.1,3.5-17.9,6.7-26.5c2.9-7.6,6.3-16.4,13.1-21.4l-25.8,14.3c10.1-4.9,19.1,9.2,20.4,17.5
					c1.6,10.4-3.6,21.6-8.1,30.6c-5.5,10.8-12.2,21-20,30.3c-4.2,5.2-8.7,10.2-13.4,14.9c-2,2-4.1,3.9-6.3,5.7
					c-1.1,0.9-2.3,1.7-3.4,2.5l22.9-12.7l-0.5,0.2c-0.5,0.1-1,0.3-1.5,0.4c-9.6,1.3-5.2-18-4.4-22.6c1.3-6.8,3-13.6,4.8-20.3
					c0.3-1.1,3.4-9.2,2.4-10.1c-0.6-0.6-12,6.5-13.2,7.1c-4.3,2.4-9.2,4.4-13,7.4c-0.6,0.5-0.4,3.6-0.5,4.2
					c-0.3,3.4-0.8,6.8-1.4,10.1c-0.7,4-2,7.9-3.6,11.7c-0.8,1.7-1.7,3.2-2.8,4.7c-0.6,0.8-1.2,1.5-1.8,2.2c-0.3,0.4-0.6,0.7-1,1
					c-7.3,5.8-0.2,2,21.3-11.6l1.8-0.9c-5.5,2.5-12.5,2.3-18.4,3.7c-7.2,1.7-14.2,3.8-21.3,6c-13.2,4-27.2,8.9-41.1,8.4
					c-28.5-1-33.1-34.2-29.2-56.6c2.5-13.6,8.2-26.4,16.8-37.3c2.2-2.9,4.6-5.5,7.3-8c1.2-1.1,2.5-2.2,3.9-3.2c1-0.8,2-1.4,3.1-2.1
					l-21.5,11.9l2.1-1c6.1-2.5,12.7-3.7,19.3-3.4c15.3,0.5,25.8,10.5,25.5,26.2c-0.3,16-8.9,32.7-17.9,45.5
					c-7.7,10.8-16.9,20.4-27.4,28.5c-3.1,2.4-6.2,4.7-9.5,6.8c-1.1,0.7-2.2,1.4-3.4,2.1c-5.6,3.5,26.4-14,16.3-9.1
					c-1.5,0.7-2.9,1.4-4.4,2.1c-13,6-26.8,10-41,12c-16.5,2.3-34.2,2.5-49.6-4.4c-32.1-14.4-31.3-55.9-18.5-83.7
					c6.8-14.7,16.6-28.2,27-40.6c4.5-5.5,9.5-10.5,14.9-15c1.7-1.3,3.4-2.5,5.2-3.7c1.4-1-23.2,12.2-19.3,10.8
					c0.8-0.3,1.6-0.7,2.5-0.9c3.1-1.1,6.3-1.6,9.5-1.7c14.2-0.4,26.3,10.3,27.8,24.4c0.6,7.2-0.9,14.4-4.3,20.8
					c-1.7,3.3-3.9,6.4-6.4,9.1c-4.6,5-19.1,12.9,1.4,1.6c20.7-11.4,5.3-3.2-1.1-1.3c-3.9,1.1-7.8,1.9-11.8,2.4
					c-6.4,0.8-12.9,0.9-19.3,0.3c-10.4-0.8-20.5-3.9-29.6-9c-5.8-3.3-11.3-7.3-16.2-11.8c-0.7-0.6-12,6.5-13.2,7.1
					S17.8,291.6,17.2,291.1c22.8,21,56.3,27.6,85.2,15.2c5.8-2.5,11.2-5.7,16.7-8.7c6.5-3.6,13.1-6.9,19.2-11
					c7.6-4.9,13.4-12.2,16.6-20.7c6.1-16.6-0.7-35.5-19-39.6c-7.7-1.7-15.1,0.1-22,3.5c-11.8,5.9-24.5,12-34.9,20.3
					c-13.7,10.8-25,26.5-34.1,41.2c-11.5,18.8-18.2,40.3-15.4,62.5c2.5,19,14.9,32.6,33,38.2c18.7,5.8,40.5,3.3,59.1-1.6
					c17.1-4.4,32.3-12.3,47.6-20.8c11.2-6.2,22.1-12.2,32.1-20.2c13.1-10.3,24-23.1,32.2-37.5c8.2-14.8,19.5-41.2,3.9-55.2
					c-12.5-11.2-32.1-5.9-45,1.1c-11,5.9-23.5,11.4-32.8,20c-6.5,6.2-11.6,13.8-15.6,21.7c-7.5,14.5-10.5,30.8-8.5,47
					c1.8,14,8.4,28.8,23.6,32c15.8,3.3,33.2-3.4,48.1-7.9c8.6-2.6,17.2-5.3,26.1-7c3.5-0.7,7.3-0.7,10.7-1.7
					c5.7-1.7,11.1-5.6,16.2-8.4c8.1-4.5,16.5-7.7,20.7-16.4c2.7-5.5,4-11.6,4.8-17.7c0.2-1.3-0.1-8,1-8.8l-26.2,14.5
					c1,1-2.3,9.8-2.6,10.9c-1.9,7-3.6,13.9-4.9,21c-1,5.4-2.5,12.3-0.5,17.7c1.7,4.8,5.9,3.5,9.6,1.7c8.3-4.2,16.5-8.9,24.5-13.5
					c2.9-1.7,5.7-3.7,8.3-6c5.6-5.1,10.8-10.6,15.6-16.4c10-11.8,18.4-24,24.6-38.3c4.7-10.7,8.8-23.4,2.1-34.2
					c-2.7-4.3-7.3-8.9-12.6-9.2c-2.6-0.2-4.5,0.9-6.7,2.1c-6.1,3.2-12,6.5-18,9.9s-10.1,6-13.5,12.1c-3.2,5.7-5.8,11.8-7.8,18
					c-4.2,13.6-6.3,27.8-6.2,42c0,6.2,0.3,12.5,0.5,18.7c0.2,6.5,0.5,13.9,5.3,18.8c7.3,7.5,19.5,7.6,28.7,4
					c8.2-3.2,15.9-8.2,23.5-12.5c5.1-2.9,10.3-5.5,14.5-9.8c5.2-5.3,11.1-15.9,9.9-23.8c-1-6.6-10.8,1.4-13.5,2.8
					c-5.4,2.9-10.9,5.8-16.1,9c-2.1,1.2-4,2.9-5.4,4.9c-7.4,11,3.4,27.3,14.1,31.5c15.9,6.2,31.9-5.4,45.1-12.8
					c6.3-3.5,12.8-6.8,18.4-11.4c2.3-2,4.5-4.1,6.5-6.4c1.9-2.3,3.5-6.1,5.8-7.9l-26.3,14.7c5-1.2-0.8,5-2,6.6
					c-3,3.8-6.5,7.2-10.5,10.1c-0.5,0.4-1.1,0.8-1.7,1.2c-7.3,4.9-1,1.5,18.9-10.3c-1.2,0.5-2.4,1.1-3.7,1.6c-2,0.8-4,1.5-6.1,2
					c-4.3,1.1-8.7,1.5-13.1,1.1c-8.7-1-16.4-6.2-20.7-13.8c-4.7-8.2-5.2-19.5,3.6-25.1l-25.3,14c11.6-6,8,8.9,5.8,14.7
					c-1.3,3.7-3.2,7.2-5.7,10.3c-2.2,2.4-4.6,4.6-7.2,6.5l9.9-5.5c10.5-5.3,13.4-7,8.5-4.9c-0.7,0.2-1.4,0.5-2.1,0.7
					c-1.9,0.6-3.8,1-5.8,1.3c-6.5,0.9-13.9,0.4-19.8-2.9c-7.2-4-9.2-10.3-9.8-18.1c-1.2-16.6-1.5-33.7,1.7-50.1
					c1.5-7.8,3.7-15.5,6.4-23c2.7-7.2,6.5-15.2,13.2-19.5l-25.3,14c13.6-6.7,25.7,10.5,25,22.5c-0.5,8.1-4.2,16-7.4,23.3
					c-3.1,7-6.6,13.8-10.7,20.3c-6.8,10.6-15,20.1-24.5,28.4c-2.1,1.8-4.2,3.7-6.5,5.3c-1.2,0.9-2.4,1.8-3.7,2.6
					c-10.7,7.1,30.1-14.5,18.2-10.1c-3.1,1.2-6.9,2.4-10.1,0.7c-8.8-4.5-7.1-22.7-0.2-28l-1.8,1.1l0.9-0.6l-24.5,13.5
					c7-2.8,13.1,3.9,20,2.6c1.9-0.4,3.9-1.7,5.5-2.6c4.3-2.3,8.5-4.6,12.8-7c3.5-1.9,9.9-4,11.8-8c2.5-5.1,0.5-12.4-1.1-17.5
					c-1.2-3.6-3.6-12-7.8-13.4c-2.6-0.9-6.3,2.3-8.3,3.4c-4.9,2.7-9.7,5.4-14.6,8.1c-1.7,1-4.4,1.8-5.6,3.4c-1,1.4-1,3.8-1.2,5.4
					c-0.5,3.7-0.8,7.4-1.5,11.1c-3.1,17-11.8,34.2-25.6,45.1c-0.9,0.7-1.8,1.4-2.7,2l-2.5,1.7l20.6-11.5c-2.9,1.3-5.8,2.4-8.8,3.4
					c-10.2,3-21.1,3.4-31.5,1.4c-15.5-3.3-29.1-12.6-37.7-26c-18.8-30-8.6-71.6,17.7-93.8c1.9-1.6,4-3,6-4.5l-10.3,5.7
					c-11.1,5.7-13.9,7.4-8.4,4.9c0.8-0.3,1.6-0.6,2.5-0.9c4.3-1.4,8.8-2.1,13.3-1.8c8.3,0.4,16.3,3.4,22.8,8.5
					c19,15.3,6,40.8-4.7,57.1c-8,12.2-19,22.5-30.9,30.9c-3.5,2.5-7.1,4.7-10.8,7c-2.4,1.6,22-11.7,13.4-7.5l-3.4,1.7
					c-3.7,1.8-7.4,3.4-11.1,5.1c-10.6,4.8-21.5,9.5-32.8,12.5c-16.4,4.5-33.8,3.4-49.6-2.9c-15-5.9-26.1-16.6-29.4-32.8
					c-3.5-17.7-0.2-37.6,8-53.7c4-7.8,8.9-15.2,13.7-22.6c5.4-8.3,10.9-16.6,17.2-24.3c2.9-3.7,6.2-7,9.8-9.9c1-0.7,2-1.3,3-2
					l-20.5,11.3l1.1-0.6c1.3-0.6,2.6-1.1,3.9-1.6c2.6-1,5.2-1.7,7.9-2c18.2-2.5,38.4,13.9,36.1,33c-1.1,8.2-4.6,15.9-10.3,22
					c-3,3.2-6.4,6.1-10.1,8.5l-0.6,0.3c-7.2,4.5-0.6,0.8,20.1-11.1c-1.1,0.5-2.1,1-3.2,1.5c-2.3,1-4.6,1.9-7,2.6
					c-18.2,6-37.7,6-55.3-1.8c-9-4-17.1-9.8-23.9-17c-0.5-0.5-12.1,6.5-13.2,7.1S17.6,291.5,17.2,291.1z"/>
			</g>
		</g>
		<g>
			<defs>
				<polygon id="SVGID_9_" points="490.5,264.8 213.1,440 43,100.7 283.9,-55 				"/>
			</defs>
			<clipPath id="SVGID_10_">
				<use xlink:href="#SVGID_9_"  style="overflow:visible;"/>
			</clipPath>
			<g class="st9">
				<path class="st2" d="M104,294.4c-0.2,0.6-0.5,1.2-0.5,1.2c-1.8,4.3-7.3,18.4-6.2,35.7c0.5,8.2,1.2,18.6,7.7,28.2
					c0,0,16.5,24.4,76.1,24h1.1c58-0.8,98.9-47.8,98.9-47.8c10.2-11.8,16.2-19,17.1-30c1.6-21-17-38-25.9-46
					c-10.2-9.2-15.5-10.7-51.6-28.5c-32.7-16.2-45.7-23.5-55-30.2c-2.9-2.1-4.8-3.6-6.2-4.7c-6.7-5.4-20.2-16.5-29.6-33.7
					c-2.5-4.5-8.6-15.7-10.2-29.6c-3.1-28.8,15-52.4,22.4-60.1c25.6-26.4,66.4-50.9,111.2-41.5c4.2,0.9,56.6,12.7,70.4,53.6
					c3,8.9,4,18.5,2.7,27.8c-4.6,31-34.2,51.3-57.8,58.7c-28.5,8.9-70.3,5.8-83.9-18.4c-5.4-9.5-8.7-26.5-1.4-35.1
					c5.4-6.4,23.9-19.8,29.2-21c1.2-0.3,1.6-1,1.5-1.7s-1.5-0.6-1.9-0.7c-4.2-0.3-41.9,25-34.9,48.4c2.6,8.5,12.9,19.1,14.2,20.3
					s2.8,2.5,2.8,2.5s1,0.8,2.1,1.6c33.3,25.3,102.2,21.3,124.9-21.1c17.7-33-2.3-71.4-5.1-76.6c-3.5-6.6-14.3-26.5-36.6-35.7
					c-10.3-4.3-20.2-5-29.3-5.7c-12-0.9-24-0.2-35.8,2.2c-34.7,6.7-72.3,28.8-90.7,61.1c-11.1,18.8-11.3,42.2-0.6,61.2
					c12.7,21.4,29.8,39.9,50.2,54.2c18.1,12.8,37.4,23.7,57.7,32.5c19.9,9.1,43.7,15.8,55.9,35.9c6.4,9.6,8.9,21.3,7.1,32.8
					c-2.8,14.3-14.3,25.9-24.6,35.2c-7.2,6.6-25.6,22.7-53.4,31.6c-8.2,2.6-16.5,4.5-25,5.6c-10,1.3-20.1,1.7-30.1,1
					c-13.2-0.9-24.3-1.6-37-7.8c-6.2-3-13.4-6.6-19-14.1c-9.1-12.2-8-26.6-7.2-36.7c2.6-33.4,25.5-55.2,24.4-56
					S105.6,290.8,104,294.4z"/>
				<path class="st2" d="M94.1,283.1c-3.6,8.4-5.8,17.2-6.6,26.3c-1,12.2,0,26.6,6.6,37.3c4.5,7.3,11.3,13.6,16.9,19.9
					c3.5,3.9,6.9,7.8,11.1,11c12.3,9.2,27.8,13.4,42.8,15.5c23.2,3.3,46.5,1.8,68.5-6.7c16.8-6.7,32.3-16.1,45.8-28
					c8.9-7.7,17.8-16.7,24-26.8c14.9-24.3-6.5-46.4-21.8-63.6c-9.8-11-19.7-22.2-32.7-29.4c-18.9-10.4-38.8-19-58-28.9
					c-14-7.2-28.1-14.5-40.4-24.3c-3.2-2.5-6.3-5.2-9.3-7.9c-1.8-1.7-3.6-3.5-5.3-5.3l13.2,14.9c-0.9-1.1-1.8-2.2-2.6-3.4
					c-1.3-1.8-2.6-3.7-3.8-5.6c-5.9-9.3-10.5-19.7-12.3-30.5c-3.6-21.7,5-43.8,18.9-60.3c27.3-32.4,74.1-54.7,116.5-44.3
					c12.3,3,24.1,7.9,34.9,14.4c3.8,2.3,7.5,4.9,11,7.7c1.5,1.2,3,2.5,4.3,3.8c1,1,2,1.9,2.9,2.9c-15.2-17.8-20-23.2-14.5-16.3
					c0.6,0.8,1.2,1.6,1.8,2.5c6.6,9.5,10.4,20.6,11,32.2c2.1,42.5-41.9,70.7-79.8,74c-19.9,1.7-41.2-1.3-56.5-14.9l16.9,19.2
					c-0.6-0.7-1.2-1.5-1.7-2.3c-0.6-1-1.2-2-1.8-3c-1-1.9-1.8-3.9-2.5-6c-2.1-5.7-2.9-11.7-2.3-17.7c1.1-9.4,8.1-14.8,15.1-20.2
					c3.8-2.9,7.7-5.7,11.9-8.2c1.5-0.9,7.9-3,7.7-4.7c-0.1-0.7-2.6-3.1-2.8-3.4c-2.3-2.7-4.7-5.3-7-8c-3-3.3-6-8.3-9.6-10.8
					c-2-1.4-3.1-1.1-5.2,0c-13.1,6.3-27.4,20-31.7,34.2c-2.8,9.2,0.5,17.1,6.1,24.5c5,6.7,10.8,12.9,16.4,19.1
					c3.6,4.1,7.1,8.4,11.1,12.2c12.7,12.1,30.5,17.9,47.6,19.5c38.5,3.7,83.4-14.6,89-57.2c2.4-18.5-2.6-37.9-11.1-54.3
					c-2.7-5.3-5.8-10.3-9.4-15c-5-6.6-10.8-12.7-16.3-19c-4.5-5-8.8-10.2-13.9-14.6c-20.5-17.9-51.2-19.5-77-15.5
					c-23.7,3.7-46.1,13.2-65.2,27.7c-18.9,14.3-36.8,35-39.3,59.4c-3,28.9,16.4,51.2,34.3,71.5c10,11.4,19.9,22.8,31.5,32.6
					c11,9,22.7,17,35,24c12,6.9,24.3,13.1,37,18.6c10.5,4.7,21.4,8.6,31.5,14.4c4.6,2.6,8.8,5.6,12.7,9.1
					c10.3,9.5-20.3-25.5-12.2-13.8c0.9,1.3,1.7,2.6,2.5,3.9c2,3.3,3.6,6.7,4.7,10.4c3.9,11.8,2.3,24.8-4.3,35.3
					c-9.9,15.9-27,29.5-42.9,39.1c-20.3,12.1-43.3,19.1-66.9,20.1c-13,0.6-26.7,0.1-39.4-2.7c-6.5-1.5-12.7-3.9-18.6-7.1
					c-2.1-1.1-4.2-2.3-6.1-3.6c-1.3-0.8-2.4-1.8-3.6-2.7c-6.5-5.9-2.1-0.8,13.2,15.1c-0.6-0.9-1.2-1.9-1.8-2.9
					c-5.4-9.9-5.4-21.4-4.4-32.4c1.1-11.7,4.4-23.1,9.8-33.5c3.6-6.8,7.8-13.2,12.5-19.2c0.5-0.7,2.2-2.2,2.2-3.1
					c-0.1-1.5-4-4.8-4.9-5.8c-4.5-5.2-9-10.3-13.6-15.3c-2-2.2-2.2-1-3.9,1.1c-2.1,2.8-4,5.7-5.9,8.6
					C100.5,272.1,96.7,277.4,94.1,283.1c-0.5,1.1,8.8,10.2,9.8,11.3c2.3,2.7,4.7,5.3,7,7.9c1.1,1,2.1,2.1,3,3.2
					c2.4-5.4,6-10.4,9.2-15.4c1.9-2.9,3.8-5.8,5.8-8.7c0.4-0.6,2.1-3.6,3.1-3.5l-19.8-22.5c0.6,0.9-5.5,7.8-6.1,8.6
					c-4.7,6.6-8.7,13.6-11.9,21.1c-3.9,9.6-6.2,19.7-6.8,30c-0.7,11,0.1,22.2,6.4,31.6c4.4,6.6,10.4,12.5,15.6,18.4
					c4.5,5.1,8.8,10.4,14.5,14.3c9.4,6.3,20.1,10.3,31.4,11.8c22.5,3.2,45.6,2.1,67.4-4.2c18.6-5.6,35.8-14.9,50.7-27.4
					c14.5-12.1,31-27.4,31-47.7c0-11.3-4.4-21.8-11.4-30.7c-5.8-7.3-12.2-14.2-18.4-21.1c-3.4-4-7.2-7.7-11.4-10.9
					c-8.2-6.3-17.8-10.5-27.3-14.6c-10.7-4.5-21.4-9.1-31.8-14.3c-22.4-11.2-44.4-24.8-62.4-42.4c-1.1-1.1-2.2-2.2-3.3-3.3l-1.1-1.2
					c-5.5-5.9-1.7-1.5,11.5,13.2c-2-2.5-4-4.9-5.9-7.5c-3.7-4.9-7.1-9.9-10.2-15.2c-5.7-10.1-8.4-21.6-7.8-33.1
					c1.1-22.7,15.8-42.4,32.4-56.8c16.3-14,35.5-24.2,56.3-29.9c12-3.3,24.4-5,36.8-5c12.3,0.1,25.4,1,37,5.3
					c5.1,1.9,10,4.6,14.4,7.8c2.1,1.5,4.1,3.1,6,4.9c0.9,0.8,1.7,1.6,2.5,2.4c8.1,8-20.9-25.2-12.3-13.8c3.2,4.3,6,8.9,8.5,13.7
					c7.4,14.1,12,30.3,11.9,46.3c0,19.3-9.1,37.6-24.5,49.3c-26.3,19.9-66.5,22.2-95.9,8.2c-6.5-3.1-12.4-7.3-17.6-12.2
					c-7-6.4,19.4,23.1,13.9,15.7c-0.8-1.1-1.7-2.2-2.5-3.3c-1.3-1.8-2.4-3.7-3.4-5.7c-1.8-3.6-2.5-7.6-2.1-11.6
					c1.5-15,15.2-27.7,26.9-35.7c2.2-1.5,7.9-6.2,10.6-3.8l-19.9-22.5c-0.1,1.8-6.2,3.7-7.7,4.7c-4.1,2.5-8.1,5.2-11.9,8.2
					c-7.5,5.8-14.5,11.3-15.2,21.5c-0.5,10.3,2.7,20.4,9,28.5c6.5,8.1,13.5,15.9,20.6,23.4c3,3.2,6.5,6,10.3,8.2
					c17.8,10.2,41.1,10.6,60.8,6.4c20-4.3,39.4-15.2,52.5-31.1c14-17,18.2-39.3,10.2-60.1c-4.2-10.9-11.7-19.3-19.3-28
					c-8.5-9.7-16.7-19.6-27.4-27.1c-28.5-19.9-64.4-26-97.5-14.4c-39,13.7-83.4,50.8-79,96.6c2.7,28.5,23.8,50,42,70
					c10.7,11.7,23.2,21.8,37,29.7c20.1,11.7,41.3,21.6,62.3,31.8c11.3,5.5,22.4,10.7,31.8,19.1c1.5,1.3,2.9,2.7,4.3,4
					c1,0.9,1.9,1.9,2.9,2.8c7.3,7.4-18.9-22.6-12.5-14.1c3.5,4.5,6.4,9.5,8.5,14.9c4,10.3,2.6,22-3.5,31.2
					c-6.4,9.8-15,18.6-23.8,26.2c-14.1,12.2-30.3,21.8-47.8,28.4c-22.5,8.2-46.6,9.1-70.1,5.1c-14.2-2.4-29-7-40.3-16.2
					c-1.1-0.9-2.2-2-3.3-3c-7.1-6.8,22.7,28.2,17.7,20.1c-0.1-0.1-0.4-0.6,0,0c-0.7-1.1-1.4-2.1-2-3.2c-5.9-10.7-6.7-24.7-5.6-36.6
					c0.9-8.8,3.1-17.4,6.5-25.5c0.5-1.2-8.8-10.2-9.8-11.3c-2.3-2.7-4.7-5.3-7-7.9C96,285.3,95.1,284.2,94.1,283.1z"/>
			</g>
		</g>
	</g>
</g>
</svg>
